<svg width="23" height="23" viewBox="0 0 23 23" fill="none" xmlns="http://www.w3.org/2000/svg">
<path fill-rule="evenodd" clip-rule="evenodd" d="M20.3665 10.4239C20.2535 11.0519 19.6965 11.5129 19.0365 11.5009H17.3665V2.50088H19.0545C19.6965 2.45188 20.2525 2.94788 20.3665 3.57688V10.4239ZM15.3665 12.2879L11.7585 20.4059C10.9515 20.1479 10.3665 19.3909 10.3665 18.5009V14.5009C10.3665 13.9479 9.91853 13.5009 9.36653 13.5009H3.69753C3.65153 13.4979 3.59053 13.4989 3.53353 13.4899C2.98853 13.4069 2.61253 12.8959 2.69453 12.3519L4.07553 3.35088C4.14953 2.86088 4.60153 2.52188 5.08653 2.50088H15.3665V12.2879ZM22.3575 3.36588C22.1355 1.72288 20.7305 0.499878 19.0945 0.499878C19.0755 0.499878 19.0555 0.499878 19.0365 0.500878H5.09753C3.61053 0.510878 2.32053 1.58088 2.09853 3.04888L0.717531 12.0509C0.470531 13.6859 1.59853 15.2179 3.23053 15.4659C3.39053 15.4909 3.55353 15.5029 3.70653 15.5009H8.36653V18.5009C8.36653 20.7069 10.1605 22.5009 12.3665 22.5009C12.7625 22.5009 13.1195 22.2679 13.2805 21.9069L17.0155 13.5009H19.0185C20.6885 13.5059 22.1325 12.2979 22.3575 10.6349C22.3635 10.5909 22.3665 10.5459 22.3665 10.5009V3.50088C22.3665 3.45588 22.3635 3.41088 22.3575 3.36588Z" fill="white"/>
</svg>
